<?xml version="1.0" encoding="UTF-8"?>
<svg xmlns="http://www.w3.org/2000/svg" width="113" height="34" viewBox="0 0 113 34" fill="none">
  <g clip-path="url(#clip0_129_399)">
    <path d="M103.465 23.3602C105.064 23.9714 106.813 24.2133 108.189 25.0819C108.755 25.4687 109.23 25.9794 109.58 26.5774L96.7757 0.356293L80.3638 34.0026H86.5681L96.7859 13.0611L101.101 21.8856C101.796 22.5188 102.597 23.0183 103.465 23.3602Z" fill="white"></path>
    <path d="M110.616 28.8452L110.596 28.8062C110.243 28.2005 109.764 27.6826 109.192 27.29C107.819 26.4213 106.067 26.1768 104.468 25.5657C103.552 25.2094 102.71 24.68 101.985 24.0052V24.0052L104.369 28.8947L104.386 28.9337C104.739 29.5387 105.218 30.0557 105.79 30.4473C107.166 31.316 108.918 31.5579 110.517 32.1716C111.395 32.5289 112.196 33.059 112.875 33.7321H113L110.616 28.8452Z" fill="white"></path>
    <path d="M66.8462 17.0273L75.3809 0.208069H80.2779L69.004 21.2146V33.6983H64.6884V21.2146L53.4146 0.208069H58.3546L66.8462 17.0273Z" fill="white"></path>
    <path d="M44.0646 0.348511H39.2261V33.4642H44.0646V0.348511Z" fill="white"></path>
    <path d="M9.53733 23.0091C7.93802 23.6203 6.1864 23.8648 4.81303 24.7334C4.24641 25.1195 3.77111 25.6305 3.42188 26.2289L16.224 0L32.6384 33.6463H26.4443L16.2265 12.7074L11.9109 21.5319C11.2129 22.1666 10.4089 22.6671 9.53733 23.0091V23.0091Z" fill="white"></path>
    <path d="M2.38618 28.4968L2.40647 28.4577C2.75692 27.8504 3.23683 27.3321 3.81032 26.9415C5.18369 26.0728 6.93531 25.8284 8.53462 25.2198C9.44898 24.8608 10.2907 24.3317 11.0174 23.6593L8.63363 28.5462L8.61586 28.5852C8.26334 29.1909 7.78384 29.7088 7.21203 30.1014C5.83358 30.9701 4.08448 31.212 2.48517 31.8258C1.60663 32.1836 0.804691 32.7137 0.124288 33.3862H0.00244141L2.38618 28.4968Z" fill="white"></path>
  </g>
  <defs>
    <clipPath id="clip0_129_399">
      <rect width="113" height="34" fill="white"></rect>
    </clipPath>
  </defs>
</svg>
